<?xml version="1.0" encoding="UTF-8" standalone="no"?>
<!DOCTYPE svg PUBLIC "-//W3C//DTD SVG 1.1//EN"
 "http://www.w3.org/Graphics/SVG/1.1/DTD/svg11.dtd">
<!-- Generated by graphviz version 6.0.2 (20221126.1951)
 -->
<!-- Pages: 1 -->
<svg width="299pt" height="404pt"
 viewBox="0.00 0.00 299.01 404.00" xmlns="http://www.w3.org/2000/svg" xmlns:xlink="http://www.w3.org/1999/xlink">
<g id="graph0" class="graph" transform="scale(1 1) rotate(0) translate(4 400)">
<polygon fill="white" stroke="none" points="-4,4 -4,-400 295.01,-400 295.01,4 -4,4"/>
<!-- 140047090167008 -->
<g id="node1" class="node">
<title>140047090167008</title>
<ellipse fill="none" stroke="black" cx="46.81" cy="-162" rx="27" ry="18"/>
<text text-anchor="middle" x="46.81" y="-158.3" font-family="Times,serif" font-size="14.00">1&#45;0</text>
</g>
<!-- 140047090167248 -->
<g id="node2" class="node">
<title>140047090167248</title>
<ellipse fill="none" stroke="black" cx="101.81" cy="-90" rx="27" ry="18"/>
<text text-anchor="middle" x="101.81" y="-86.3" font-family="Times,serif" font-size="14.00">5&#45;0</text>
</g>
<!-- 140047090167008&#45;&gt;140047090167248 -->
<g id="edge1" class="edge">
<title>140047090167008&#45;&gt;140047090167248</title>
<path fill="none" stroke="black" d="M58.75,-145.81C66.03,-136.55 75.47,-124.52 83.67,-114.09"/>
<polygon fill="black" stroke="black" points="86.48,-116.18 89.9,-106.16 80.97,-111.86 86.48,-116.18"/>
</g>
<!-- 140047090167152 -->
<g id="node5" class="node">
<title>140047090167152</title>
<ellipse fill="none" stroke="black" cx="46.81" cy="-18" rx="27" ry="18"/>
<text text-anchor="middle" x="46.81" y="-14.3" font-family="Times,serif" font-size="14.00">3&#45;0</text>
</g>
<!-- 140047090167248&#45;&gt;140047090167152 -->
<g id="edge6" class="edge">
<title>140047090167248&#45;&gt;140047090167152</title>
<path fill="none" stroke="black" d="M89.88,-73.81C82.6,-64.55 73.15,-52.52 64.96,-42.09"/>
<polygon fill="black" stroke="black" points="67.65,-39.86 58.72,-34.16 62.15,-44.18 67.65,-39.86"/>
</g>
<!-- 140047090167104 -->
<g id="node3" class="node">
<title>140047090167104</title>
<ellipse fill="none" stroke="black" cx="249.81" cy="-18" rx="27" ry="18"/>
<text text-anchor="middle" x="249.81" y="-14.3" font-family="Times,serif" font-size="14.00">2&#45;0</text>
</g>
<!-- 140047090167440 -->
<g id="node4" class="node">
<title>140047090167440</title>
<ellipse fill="none" stroke="black" cx="183.81" cy="-234" rx="27" ry="18"/>
<text text-anchor="middle" x="183.81" y="-230.3" font-family="Times,serif" font-size="14.00">9&#45;0</text>
</g>
<!-- 140047090167104&#45;&gt;140047090167440 -->
<g id="edge2" class="edge">
<title>140047090167104&#45;&gt;140047090167440</title>
<path fill="none" stroke="black" d="M246.67,-36.18C243.25,-54.19 237.39,-83.26 230.81,-108 222.18,-140.47 219.87,-148.65 207.81,-180 204.33,-189.04 200.09,-198.75 196.15,-207.35"/>
<polygon fill="black" stroke="black" points="192.94,-205.96 191.88,-216.5 199.28,-208.92 192.94,-205.96"/>
</g>
<!-- 140047090167440&#45;&gt;140047090167248 -->
<g id="edge14" class="edge">
<title>140047090167440&#45;&gt;140047090167248</title>
<path fill="none" stroke="black" d="M164.27,-221.57C150.02,-212.21 131.41,-197.64 120.81,-180 109.59,-161.32 104.95,-136.93 103.05,-118.41"/>
<polygon fill="black" stroke="black" points="106.52,-117.95 102.22,-108.27 99.55,-118.52 106.52,-117.95"/>
</g>
<!-- 140047090167344 -->
<g id="node10" class="node">
<title>140047090167344</title>
<ellipse fill="none" stroke="black" cx="156.81" cy="-162" rx="27" ry="18"/>
<text text-anchor="middle" x="156.81" y="-158.3" font-family="Times,serif" font-size="14.00">7&#45;0</text>
</g>
<!-- 140047090167440&#45;&gt;140047090167344 -->
<g id="edge15" class="edge">
<title>140047090167440&#45;&gt;140047090167344</title>
<path fill="none" stroke="black" d="M177.41,-216.41C174.3,-208.34 170.48,-198.43 166.98,-189.35"/>
<polygon fill="black" stroke="black" points="170.22,-188.03 163.35,-179.96 163.69,-190.55 170.22,-188.03"/>
</g>
<!-- 140047090167152&#45;&gt;140047090167008 -->
<g id="edge3" class="edge">
<title>140047090167152&#45;&gt;140047090167008</title>
<path fill="none" stroke="black" d="M46.81,-36.19C46.81,-60.42 46.81,-104.89 46.81,-133.68"/>
<polygon fill="black" stroke="black" points="43.31,-133.87 46.81,-143.87 50.31,-133.87 43.31,-133.87"/>
</g>
<!-- 140047090167200 -->
<g id="node6" class="node">
<title>140047090167200</title>
<ellipse fill="none" stroke="black" cx="194.81" cy="-90" rx="27" ry="18"/>
<text text-anchor="middle" x="194.81" y="-86.3" font-family="Times,serif" font-size="14.00">4&#45;0</text>
</g>
<!-- 140047090167200&#45;&gt;140047090167104 -->
<g id="edge4" class="edge">
<title>140047090167200&#45;&gt;140047090167104</title>
<path fill="none" stroke="black" d="M206.75,-73.81C214.03,-64.55 223.47,-52.52 231.67,-42.09"/>
<polygon fill="black" stroke="black" points="234.48,-44.18 237.9,-34.16 228.97,-39.86 234.48,-44.18"/>
</g>
<!-- 140047090167200&#45;&gt;140047090167440 -->
<g id="edge5" class="edge">
<title>140047090167200&#45;&gt;140047090167440</title>
<path fill="none" stroke="black" d="M195.17,-108.11C195.36,-126.06 195.2,-155.08 192.81,-180 192,-188.49 190.62,-197.68 189.18,-205.98"/>
<polygon fill="black" stroke="black" points="185.72,-205.43 187.37,-215.9 192.61,-206.69 185.72,-205.43"/>
</g>
<!-- 140047090167296 -->
<g id="node7" class="node">
<title>140047090167296</title>
<ellipse fill="none" stroke="black" cx="183.81" cy="-378" rx="27" ry="18"/>
<text text-anchor="middle" x="183.81" y="-374.3" font-family="Times,serif" font-size="14.00">6&#45;0</text>
</g>
<!-- 140047090167392 -->
<g id="node8" class="node">
<title>140047090167392</title>
<ellipse fill="none" stroke="black" cx="183.81" cy="-306" rx="27" ry="18"/>
<text text-anchor="middle" x="183.81" y="-302.3" font-family="Times,serif" font-size="14.00">8&#45;0</text>
</g>
<!-- 140047090167296&#45;&gt;140047090167392 -->
<g id="edge7" class="edge">
<title>140047090167296&#45;&gt;140047090167392</title>
<path fill="none" stroke="black" d="M183.81,-359.7C183.81,-351.98 183.81,-342.71 183.81,-334.11"/>
<polygon fill="black" stroke="black" points="187.31,-334.1 183.81,-324.1 180.31,-334.1 187.31,-334.1"/>
</g>
<!-- 140047090167536 -->
<g id="node9" class="node">
<title>140047090167536</title>
<ellipse fill="none" stroke="black" cx="107.81" cy="-234" rx="31.4" ry="18"/>
<text text-anchor="middle" x="107.81" y="-230.3" font-family="Times,serif" font-size="14.00">11&#45;0</text>
</g>
<!-- 140047090167296&#45;&gt;140047090167536 -->
<g id="edge8" class="edge">
<title>140047090167296&#45;&gt;140047090167536</title>
<path fill="none" stroke="black" d="M172.36,-361.69C164.89,-351.34 155.19,-337.21 147.81,-324 136.38,-303.54 125.62,-279.19 118.14,-261.14"/>
<polygon fill="black" stroke="black" points="121.36,-259.76 114.35,-251.82 114.88,-262.41 121.36,-259.76"/>
</g>
<!-- 140047090167392&#45;&gt;140047090167440 -->
<g id="edge11" class="edge">
<title>140047090167392&#45;&gt;140047090167440</title>
<path fill="none" stroke="black" d="M183.81,-287.7C183.81,-279.98 183.81,-270.71 183.81,-262.11"/>
<polygon fill="black" stroke="black" points="187.31,-262.1 183.81,-252.1 180.31,-262.1 187.31,-262.1"/>
</g>
<!-- 140047090167392&#45;&gt;140047090167536 -->
<g id="edge13" class="edge">
<title>140047090167392&#45;&gt;140047090167536</title>
<path fill="none" stroke="black" d="M168.43,-290.83C157.76,-281 143.34,-267.72 131.24,-256.58"/>
<polygon fill="black" stroke="black" points="133.42,-253.83 123.69,-249.63 128.68,-258.98 133.42,-253.83"/>
</g>
<!-- 140047090167488 -->
<g id="node11" class="node">
<title>140047090167488</title>
<ellipse fill="none" stroke="black" cx="259.81" cy="-234" rx="31.4" ry="18"/>
<text text-anchor="middle" x="259.81" y="-230.3" font-family="Times,serif" font-size="14.00">10&#45;0</text>
</g>
<!-- 140047090167392&#45;&gt;140047090167488 -->
<g id="edge12" class="edge">
<title>140047090167392&#45;&gt;140047090167488</title>
<path fill="none" stroke="black" d="M199.19,-290.83C209.87,-281 224.28,-267.72 236.38,-256.58"/>
<polygon fill="black" stroke="black" points="238.95,-258.98 243.93,-249.63 234.21,-253.83 238.95,-258.98"/>
</g>
<!-- 140047090167536&#45;&gt;140047090167152 -->
<g id="edge18" class="edge">
<title>140047090167536&#45;&gt;140047090167152</title>
<path fill="none" stroke="black" d="M79.7,-226.14C56.69,-218.88 25.59,-204.92 10.81,-180 -14.96,-136.54 11.88,-76.52 31.06,-43.41"/>
<polygon fill="black" stroke="black" points="34.07,-45.19 36.22,-34.81 28.07,-41.59 34.07,-45.19"/>
</g>
<!-- 140047090167344&#45;&gt;140047090167248 -->
<g id="edge10" class="edge">
<title>140047090167344&#45;&gt;140047090167248</title>
<path fill="none" stroke="black" d="M144.88,-145.81C137.6,-136.55 128.15,-124.52 119.96,-114.09"/>
<polygon fill="black" stroke="black" points="122.65,-111.86 113.72,-106.16 117.15,-116.18 122.65,-111.86"/>
</g>
<!-- 140047090167344&#45;&gt;140047090167200 -->
<g id="edge9" class="edge">
<title>140047090167344&#45;&gt;140047090167200</title>
<path fill="none" stroke="black" d="M165.63,-144.76C170.23,-136.28 175.97,-125.71 181.13,-116.2"/>
<polygon fill="black" stroke="black" points="184.35,-117.61 186.05,-107.15 178.2,-114.27 184.35,-117.61"/>
</g>
<!-- 140047090167488&#45;&gt;140047090167104 -->
<g id="edge16" class="edge">
<title>140047090167488&#45;&gt;140047090167104</title>
<path fill="none" stroke="black" d="M261.94,-215.99C265.25,-186.52 270.58,-124.13 263.81,-72 262.68,-63.28 260.54,-53.95 258.27,-45.58"/>
<polygon fill="black" stroke="black" points="261.63,-44.6 255.49,-35.96 254.9,-46.54 261.63,-44.6"/>
</g>
<!-- 140047090167488&#45;&gt;140047090167296 -->
<g id="edge17" class="edge">
<title>140047090167488&#45;&gt;140047090167296</title>
<path fill="none" stroke="black" d="M253.28,-251.82C245.97,-270.04 233.36,-299.75 219.81,-324 214.28,-333.9 207.44,-344.33 201.21,-353.29"/>
<polygon fill="black" stroke="black" points="198.19,-351.5 195.26,-361.69 203.9,-355.55 198.19,-351.5"/>
</g>
</g>
</svg>
