<?xml version="1.0" encoding="UTF-8" standalone="no"?>
<!DOCTYPE svg PUBLIC "-//W3C//DTD SVG 1.1//EN"
 "http://www.w3.org/Graphics/SVG/1.1/DTD/svg11.dtd">
<!-- Generated by graphviz version 10.0.1 (20240210.2158)
 -->
<!-- Pages: 1 -->
<svg width="167pt" height="692pt"
 viewBox="0.00 0.00 166.51 692.00" xmlns="http://www.w3.org/2000/svg" xmlns:xlink="http://www.w3.org/1999/xlink">
<g id="graph0" class="graph" transform="scale(1 1) rotate(0) translate(4 688)">
<polygon fill="white" stroke="none" points="-4,4 -4,-688 162.51,-688 162.51,4 -4,4"/>
<!-- 4377713584 -->
<g id="node1" class="node">
<title>4377713584</title>
<ellipse fill="none" stroke="black" cx="55.81" cy="-234" rx="27" ry="18"/>
<text text-anchor="middle" x="55.81" y="-228.95" font-family="Times,serif" font-size="14.00">1&#45;0</text>
</g>
<!-- 4377713920 -->
<g id="node2" class="node">
<title>4377713920</title>
<ellipse fill="none" stroke="black" cx="27.81" cy="-162" rx="27" ry="18"/>
<text text-anchor="middle" x="27.81" y="-156.95" font-family="Times,serif" font-size="14.00">7&#45;0</text>
</g>
<!-- 4377713584&#45;&gt;4377713920 -->
<g id="edge1" class="edge">
<title>4377713584&#45;&gt;4377713920</title>
<path fill="none" stroke="black" d="M49.17,-216.41C46.03,-208.57 42.21,-198.99 38.66,-190.13"/>
<polygon fill="black" stroke="black" points="41.92,-188.86 34.96,-180.88 35.42,-191.46 41.92,-188.86"/>
</g>
<!-- 4377713920&#45;&gt;4377713920 -->
<g id="edge6" class="edge">
<title>4377713920&#45;&gt;4377713920</title>
<path fill="none" stroke="black" d="M47.7,-174.43C60.5,-177.68 72.81,-173.53 72.81,-162 72.81,-153.98 66.86,-149.54 58.93,-148.66"/>
<polygon fill="black" stroke="black" points="58.9,-145.15 49.21,-149.45 59.46,-152.13 58.9,-145.15"/>
</g>
<!-- 4377713824 -->
<g id="node5" class="node">
<title>4377713824</title>
<ellipse fill="none" stroke="black" cx="27.81" cy="-90" rx="27" ry="18"/>
<text text-anchor="middle" x="27.81" y="-84.95" font-family="Times,serif" font-size="14.00">5&#45;0</text>
</g>
<!-- 4377713920&#45;&gt;4377713824 -->
<g id="edge5" class="edge">
<title>4377713920&#45;&gt;4377713824</title>
<path fill="none" stroke="black" d="M27.81,-143.7C27.81,-136.41 27.81,-127.73 27.81,-119.54"/>
<polygon fill="black" stroke="black" points="31.31,-119.62 27.81,-109.62 24.31,-119.62 31.31,-119.62"/>
</g>
<!-- 4377713728 -->
<g id="node3" class="node">
<title>4377713728</title>
<ellipse fill="none" stroke="black" cx="55.81" cy="-306" rx="27" ry="18"/>
<text text-anchor="middle" x="55.81" y="-300.95" font-family="Times,serif" font-size="14.00">3&#45;0</text>
</g>
<!-- 4377713728&#45;&gt;4377713584 -->
<g id="edge2" class="edge">
<title>4377713728&#45;&gt;4377713584</title>
<path fill="none" stroke="black" d="M55.81,-287.7C55.81,-280.41 55.81,-271.73 55.81,-263.54"/>
<polygon fill="black" stroke="black" points="59.31,-263.62 55.81,-253.62 52.31,-263.62 59.31,-263.62"/>
</g>
<!-- 4377714112 -->
<g id="node4" class="node">
<title>4377714112</title>
<ellipse fill="none" stroke="black" cx="27.81" cy="-18" rx="27.81" ry="18"/>
<text text-anchor="middle" x="27.81" y="-12.95" font-family="Times,serif" font-size="14.00">11&#45;0</text>
</g>
<!-- 4377714112&#45;&gt;4377714112 -->
<g id="edge3" class="edge">
<title>4377714112&#45;&gt;4377714112</title>
<path fill="none" stroke="black" d="M48.54,-30.55C61.39,-33.57 73.62,-29.39 73.62,-18 73.62,-10.08 67.7,-5.64 59.78,-4.69"/>
<polygon fill="black" stroke="black" points="59.79,-1.19 50.05,-5.35 60.26,-8.17 59.79,-1.19"/>
</g>
<!-- 4377713824&#45;&gt;4377714112 -->
<g id="edge4" class="edge">
<title>4377713824&#45;&gt;4377714112</title>
<path fill="none" stroke="black" d="M27.81,-71.7C27.81,-64.41 27.81,-55.73 27.81,-47.54"/>
<polygon fill="black" stroke="black" points="31.31,-47.62 27.81,-37.62 24.31,-47.62 31.31,-47.62"/>
</g>
<!-- 4377714016 -->
<g id="node6" class="node">
<title>4377714016</title>
<ellipse fill="none" stroke="black" cx="55.81" cy="-666" rx="27" ry="18"/>
<text text-anchor="middle" x="55.81" y="-660.95" font-family="Times,serif" font-size="14.00">9&#45;0</text>
</g>
<!-- 4377714016&#45;&gt;4377713920 -->
<g id="edge7" class="edge">
<title>4377714016&#45;&gt;4377713920</title>
<path fill="none" stroke="black" d="M43.06,-649.7C35.25,-639.59 25.66,-625.71 19.81,-612 3.93,-574.8 0.81,-563.45 0.81,-523 0.81,-523 0.81,-523 0.81,-305 0.81,-264.64 11.47,-218.94 19.39,-190.54"/>
<polygon fill="black" stroke="black" points="22.65,-191.88 22.05,-181.31 15.92,-189.94 22.65,-191.88"/>
</g>
<!-- 4377713680 -->
<g id="node7" class="node">
<title>4377713680</title>
<ellipse fill="none" stroke="black" cx="55.81" cy="-594" rx="27" ry="18"/>
<text text-anchor="middle" x="55.81" y="-588.95" font-family="Times,serif" font-size="14.00">2&#45;0</text>
</g>
<!-- 4377714016&#45;&gt;4377713680 -->
<g id="edge8" class="edge">
<title>4377714016&#45;&gt;4377713680</title>
<path fill="none" stroke="black" d="M55.81,-647.7C55.81,-640.41 55.81,-631.73 55.81,-623.54"/>
<polygon fill="black" stroke="black" points="59.31,-623.62 55.81,-613.62 52.31,-623.62 59.31,-623.62"/>
</g>
<!-- 4377713968 -->
<g id="node8" class="node">
<title>4377713968</title>
<ellipse fill="none" stroke="black" cx="55.81" cy="-522" rx="27" ry="18"/>
<text text-anchor="middle" x="55.81" y="-516.95" font-family="Times,serif" font-size="14.00">8&#45;0</text>
</g>
<!-- 4377713680&#45;&gt;4377713968 -->
<g id="edge9" class="edge">
<title>4377713680&#45;&gt;4377713968</title>
<path fill="none" stroke="black" d="M55.81,-575.7C55.81,-568.41 55.81,-559.73 55.81,-551.54"/>
<polygon fill="black" stroke="black" points="59.31,-551.62 55.81,-541.62 52.31,-551.62 59.31,-551.62"/>
</g>
<!-- 4377713968&#45;&gt;4377713968 -->
<g id="edge12" class="edge">
<title>4377713968&#45;&gt;4377713968</title>
<path fill="none" stroke="black" d="M75.7,-534.43C88.5,-537.68 100.81,-533.53 100.81,-522 100.81,-513.98 94.86,-509.54 86.93,-508.66"/>
<polygon fill="black" stroke="black" points="86.9,-505.15 77.21,-509.45 87.46,-512.13 86.9,-505.15"/>
</g>
<!-- 4377713872 -->
<g id="node10" class="node">
<title>4377713872</title>
<ellipse fill="none" stroke="black" cx="119.81" cy="-450" rx="27" ry="18"/>
<text text-anchor="middle" x="119.81" y="-444.95" font-family="Times,serif" font-size="14.00">6&#45;0</text>
</g>
<!-- 4377713968&#45;&gt;4377713872 -->
<g id="edge13" class="edge">
<title>4377713968&#45;&gt;4377713872</title>
<path fill="none" stroke="black" d="M69.38,-506.15C77.87,-496.87 88.97,-484.73 98.6,-474.19"/>
<polygon fill="black" stroke="black" points="101.07,-476.68 105.23,-466.94 95.9,-471.96 101.07,-476.68"/>
</g>
<!-- 4377713776 -->
<g id="node11" class="node">
<title>4377713776</title>
<ellipse fill="none" stroke="black" cx="55.81" cy="-378" rx="27" ry="18"/>
<text text-anchor="middle" x="55.81" y="-372.95" font-family="Times,serif" font-size="14.00">4&#45;0</text>
</g>
<!-- 4377713968&#45;&gt;4377713776 -->
<g id="edge14" class="edge">
<title>4377713968&#45;&gt;4377713776</title>
<path fill="none" stroke="black" d="M51.22,-503.87C48.7,-479.99 48.38,-436.38 50.27,-407.54"/>
<polygon fill="black" stroke="black" points="53.75,-407.95 51.09,-397.7 46.77,-407.37 53.75,-407.95"/>
</g>
<!-- 4377714064 -->
<g id="node9" class="node">
<title>4377714064</title>
<ellipse fill="none" stroke="black" cx="128.81" cy="-378" rx="27.81" ry="18"/>
<text text-anchor="middle" x="128.81" y="-372.95" font-family="Times,serif" font-size="14.00">10&#45;0</text>
</g>
<!-- 4377714064&#45;&gt;4377713728 -->
<g id="edge10" class="edge">
<title>4377714064&#45;&gt;4377713728</title>
<path fill="none" stroke="black" d="M113.68,-362.5C103.63,-352.86 90.24,-340.02 78.88,-329.12"/>
<polygon fill="black" stroke="black" points="81.4,-326.69 71.76,-322.29 76.55,-331.74 81.4,-326.69"/>
</g>
<!-- 4377714064&#45;&gt;4377714016 -->
<g id="edge11" class="edge">
<title>4377714064&#45;&gt;4377714016</title>
<path fill="none" stroke="black" d="M139.44,-394.93C145.55,-405.07 152.63,-418.75 155.81,-432 159.54,-447.56 159.13,-452.35 155.81,-468 141.54,-535.22 98.27,-604.84 73.57,-640.58"/>
<polygon fill="black" stroke="black" points="70.9,-638.29 68.01,-648.49 76.63,-642.32 70.9,-638.29"/>
</g>
<!-- 4377713872&#45;&gt;4377714064 -->
<g id="edge15" class="edge">
<title>4377713872&#45;&gt;4377714064</title>
<path fill="none" stroke="black" d="M122.03,-431.7C122.98,-424.32 124.11,-415.52 125.18,-407.25"/>
<polygon fill="black" stroke="black" points="128.61,-407.97 126.42,-397.61 121.67,-407.08 128.61,-407.97"/>
</g>
<!-- 4377713872&#45;&gt;4377713776 -->
<g id="edge16" class="edge">
<title>4377713872&#45;&gt;4377713776</title>
<path fill="none" stroke="black" d="M106.24,-434.15C97.75,-424.87 86.64,-412.73 77.01,-402.19"/>
<polygon fill="black" stroke="black" points="79.71,-399.96 70.38,-394.94 74.55,-404.68 79.71,-399.96"/>
</g>
<!-- 4377713776&#45;&gt;4377713728 -->
<g id="edge17" class="edge">
<title>4377713776&#45;&gt;4377713728</title>
<path fill="none" stroke="black" d="M55.81,-359.7C55.81,-352.41 55.81,-343.73 55.81,-335.54"/>
<polygon fill="black" stroke="black" points="59.31,-335.62 55.81,-325.62 52.31,-335.62 59.31,-335.62"/>
</g>
<!-- 4377713776&#45;&gt;4377713968 -->
<g id="edge18" class="edge">
<title>4377713776&#45;&gt;4377713968</title>
<path fill="none" stroke="black" d="M60.4,-396.19C62.92,-420.1 63.23,-463.72 61.34,-492.53"/>
<polygon fill="black" stroke="black" points="57.86,-492.11 60.52,-502.36 64.84,-492.69 57.86,-492.11"/>
</g>
</g>
</svg>
